<svg width="32" height="24" viewBox="0 0 32 24" fill="none" xmlns="http://www.w3.org/2000/svg">
<path d="M30.8571 0.591797H1.14286C0.510714 0.591797 0 1.05922 0 1.63777V22.5573C0 23.1358 0.510714 23.6033 1.14286 23.6033H30.8571C31.4893 23.6033 32 23.1358 32 22.5573V1.63777C32 1.05922 31.4893 0.591797 30.8571 0.591797ZM29.4286 4.21349V21.2498H2.57143V4.21349L1.58571 3.51072L2.98929 1.86004L4.51786 2.94851H27.4857L29.0143 1.86004L30.4179 3.51072L29.4286 4.21349ZM27.4857 2.94524L16 11.1169L4.51429 2.94524L2.98571 1.85677L1.58214 3.50745L2.56786 4.21022L14.7679 12.8918C15.1187 13.1413 15.5504 13.2767 15.9946 13.2767C16.4389 13.2767 16.8706 13.1413 17.2214 12.8918L29.4286 4.21349L30.4143 3.51072L29.0107 1.86004L27.4857 2.94524Z" fill="black"/>
</svg>
