<svg width="47" height="40" viewBox="0 0 47 40" fill="none" xmlns="http://www.w3.org/2000/svg">
<path d="M46.081 19.4189C46.0806 19.2863 46.0801 19.1356 46.0744 18.9607C46.0676 18.4724 46.0555 17.9238 46.0433 17.339C45.9966 15.6571 45.9192 13.9812 45.8009 12.402C45.6396 10.226 45.4077 8.41203 45.095 7.05046C44.7651 5.62956 44.1234 4.33475 43.234 3.29545C42.3446 2.25615 41.2387 1.50876 40.0268 1.12799C38.5719 0.674419 35.7257 0.400118 31.7192 0.238034C29.8136 0.159696 27.7745 0.111929 25.7355 0.0882767C25.0216 0.0784921 24.359 0.0745734 23.7632 0.0704416L22.2533 0.0752501C21.6576 0.0831763 20.9951 0.0913148 20.2813 0.105646C18.2425 0.142284 16.2037 0.203038 14.2986 0.293512C10.2933 0.487139 7.44392 0.779578 5.99714 1.23636C4.7874 1.6239 3.68605 2.378 2.80345 3.42309C1.92086 4.46818 1.28803 5.76755 0.96837 7.19099C0.659609 8.55454 0.444792 10.37 0.297941 12.5469C0.190195 14.1269 0.123856 15.8032 0.0883514 17.4854C0.0748846 18.0702 0.0715693 18.6189 0.068054 19.1073C0.0686342 19.2821 0.0639987 19.4328 0.0644388 19.5655L0.0655591 19.9031C0.0659992 20.0357 0.0664993 20.1865 0.0722153 20.3613C0.0789715 20.8496 0.0910636 21.3982 0.103276 21.983C0.149944 23.665 0.227406 25.3408 0.345635 26.92C0.50693 29.096 0.738926 30.91 1.05159 32.2716C1.71856 35.1574 3.65717 37.4302 6.11977 38.194C7.56958 38.6476 10.4209 38.9219 14.4274 39.084C16.333 39.1623 18.3721 39.2101 20.4111 39.2337C21.125 39.2435 21.7876 39.2475 22.3833 39.2516L23.8932 39.2468C24.489 39.2389 25.1515 39.2307 25.8653 39.2164C27.9041 39.1797 29.9428 39.119 31.8479 39.0285C35.8532 38.8349 38.7027 38.5424 40.1494 38.0857C42.6069 37.3061 44.5304 35.027 45.1782 32.131C45.487 30.7675 45.7018 28.9521 45.8486 26.7751C45.9564 25.1952 46.0227 23.5189 46.0582 21.8366C46.0717 21.2518 46.075 20.7031 46.0785 20.2148C46.0779 20.0399 46.0826 19.8892 46.0821 19.7565L46.081 19.4189ZM42.3843 19.7442C42.3847 19.8708 42.3852 20.0095 42.3806 20.1723C42.377 20.6426 42.3685 21.1611 42.36 21.7218C42.3294 23.3256 42.2628 24.9296 42.1599 26.4191C42.0277 28.3609 41.8378 29.9531 41.6 31.021C41.2862 32.4147 40.3551 33.521 39.1751 33.8925C38.0977 34.2336 35.3818 34.5136 31.6897 34.6881C29.8206 34.7785 27.8075 34.8391 25.7995 34.8757C25.096 34.89 24.4438 34.8981 23.8583 34.8999L22.3894 34.9046L20.4481 34.8927C18.4399 34.869 16.4316 34.8211 14.5568 34.7427C10.8636 34.5856 8.14074 34.329 7.06624 33.9948C5.88377 33.6248 4.94542 32.5305 4.62238 31.1388C4.37745 30.0724 4.17701 28.4814 4.0319 26.5405C3.91911 25.0517 3.84702 23.4482 3.80062 21.8446C3.78335 21.284 3.77647 20.7595 3.7698 20.2952C3.76926 20.1325 3.76364 19.9878 3.76324 19.8672L3.76228 19.5778C3.76186 19.4512 3.7614 19.3125 3.766 19.1497C3.76957 18.6795 3.77812 18.1609 3.78653 17.6002C3.81716 15.9964 3.88374 14.3924 3.98665 12.9029C4.11888 10.9612 4.30875 9.3689 4.54659 8.301C4.86039 6.90729 5.79144 5.80101 6.97145 5.42948C8.04884 5.08842 10.7648 4.80846 14.4569 4.63392C16.326 4.54356 18.339 4.48289 20.347 4.44635C21.0506 4.43205 21.7028 4.42395 22.2883 4.42208L23.7571 4.4174L25.6985 4.42931C27.7067 4.45306 29.715 4.50092 31.5898 4.57936C35.283 4.73641 38.0058 4.99302 39.0803 5.32722C40.2628 5.69726 41.2012 6.79156 41.5242 8.18324C41.7691 9.2496 41.9696 10.8406 42.1147 12.7815C42.2275 14.2703 42.2996 15.8738 42.346 17.4774C42.3632 18.0381 42.3701 18.5626 42.3768 19.0268C42.3773 19.1896 42.3829 19.3342 42.3833 19.4548L42.3843 19.7442ZM18.5293 27.7544L30.4173 19.5773L18.4756 11.5967L18.5293 27.7544Z" fill="white"/>
</svg>
