<svg width="47" height="40" viewBox="0 0 47 40" fill="none" xmlns="http://www.w3.org/2000/svg">
<path d="M46.081 19.4193C46.0806 19.2867 46.0801 19.1359 46.0744 18.9611C46.0676 18.4728 46.0555 17.9242 46.0433 17.3394C45.9966 15.6574 45.9192 13.9816 45.8009 12.4024C45.6396 10.2264 45.4077 8.4124 45.095 7.05083C44.7651 5.62993 44.1234 4.33512 43.234 3.29582C42.3446 2.25652 41.2387 1.50913 40.0268 1.12836C38.5719 0.674785 35.7257 0.400484 31.7192 0.238401C29.8136 0.160063 27.7745 0.112295 25.7355 0.0886429C25.0216 0.0788584 24.359 0.0749396 23.7632 0.0708078L22.2533 0.0756163C21.6576 0.0835425 20.9951 0.091681 20.2813 0.106012C18.2425 0.14265 16.2037 0.203405 14.2986 0.293878C10.2933 0.487505 7.44392 0.779944 5.99714 1.23673C4.7874 1.62427 3.68605 2.37837 2.80345 3.42346C1.92086 4.46855 1.28803 5.76792 0.96837 7.19136C0.659609 8.5549 0.444792 10.3703 0.297941 12.5473C0.190195 14.1272 0.123856 15.8035 0.0883514 17.4857C0.0748846 18.0706 0.0715693 18.6193 0.068054 19.1076C0.0686342 19.2825 0.0639987 19.4332 0.0644388 19.5658L0.0655591 19.9035C0.0659992 20.0361 0.0664993 20.1868 0.0722153 20.3616C0.0789715 20.85 0.0910636 21.3986 0.103276 21.9834C0.149944 23.6653 0.227406 25.3411 0.345635 26.9204C0.50693 29.0964 0.738926 30.9104 1.05159 32.2719C1.71856 35.1577 3.65717 37.4305 6.11977 38.1944C7.56958 38.648 10.4209 38.9223 14.4274 39.0844C16.333 39.1627 18.3721 39.2105 20.4111 39.2341C21.125 39.2439 21.7876 39.2478 22.3833 39.252L23.8932 39.2471C24.489 39.2392 25.1515 39.2311 25.8653 39.2167C27.9041 39.1801 29.9428 39.1194 31.8479 39.0289C35.8532 38.8353 38.7027 38.5428 40.1494 38.086C42.6069 37.3065 44.5304 35.0274 45.1782 32.1314C45.487 30.7679 45.7018 28.9524 45.8486 26.7755C45.9564 25.1955 46.0227 23.5192 46.0582 21.837C46.0717 21.2522 46.075 20.7035 46.0785 20.2151C46.0779 20.0403 46.0826 19.8896 46.0821 19.7569L46.081 19.4193ZM42.3843 19.7446C42.3847 19.8712 42.3852 20.0099 42.3806 20.1727C42.377 20.6429 42.3685 21.1615 42.36 21.7222C42.3294 23.326 42.2628 24.9299 42.1599 26.4194C42.0277 28.3612 41.8378 29.9535 41.6 31.0214C41.2862 32.4151 40.3551 33.5214 39.1751 33.8929C38.0977 34.234 35.3818 34.5139 31.6897 34.6885C29.8206 34.7788 27.8075 34.8395 25.7995 34.876C25.096 34.8903 24.4438 34.8984 23.8583 34.9003L22.3894 34.905L20.4481 34.8931C18.4399 34.8693 16.4316 34.8215 14.5568 34.743C10.8636 34.586 8.14074 34.3294 7.06624 33.9952C5.88377 33.6251 4.94542 32.5308 4.62238 31.1392C4.37745 30.0728 4.17701 28.4818 4.0319 26.5409C3.91911 25.0521 3.84702 23.4486 3.80062 21.845C3.78335 21.2843 3.77647 20.7598 3.7698 20.2956C3.76926 20.1328 3.76364 19.9882 3.76324 19.8676L3.76228 19.5782C3.76186 19.4516 3.7614 19.3129 3.766 19.1501C3.76957 18.6798 3.77812 18.1613 3.78653 17.6006C3.81716 15.9967 3.88374 14.3928 3.98665 12.9033C4.11888 10.9615 4.30875 9.36926 4.54659 8.30136C4.86039 6.90765 5.79144 5.80137 6.97145 5.42984C8.04884 5.08879 10.7648 4.80883 14.4569 4.63429C16.326 4.54393 18.339 4.48326 20.347 4.44672C21.0506 4.43242 21.7028 4.42431 22.2883 4.42245L23.7571 4.41777L25.6985 4.42967C27.7067 4.45342 29.715 4.50129 31.5898 4.57973C35.283 4.73678 38.0058 4.99339 39.0803 5.32759C40.2628 5.69763 41.2012 6.79192 41.5242 8.1836C41.7691 9.24997 41.9696 10.841 42.1147 12.7819C42.2275 14.2707 42.2996 15.8742 42.346 17.4778C42.3632 18.0384 42.3701 18.5629 42.3768 19.0271C42.3773 19.1899 42.3829 19.3346 42.3833 19.4552L42.3843 19.7446ZM18.5293 27.7548L30.4173 19.5777L18.4756 11.5971L18.5293 27.7548Z" fill="white"/>
</svg>
