<svg width="60" height="60" viewBox="0 0 60 60" fill="none" xmlns="http://www.w3.org/2000/svg">
<path d="M20 30L27.5 37.5L40 22.5M10 42V18C10 15.2 10 13.8 10.545 12.73C11.025 11.7875 11.7875 11.025 12.73 10.545C13.8 10 15.2 10 18 10H42C44.8 10 46.2 10 47.2675 10.545C48.21 11.025 48.975 11.7875 49.455 12.73C50 13.7975 50 15.1975 50 17.9925V42.01C50 44.805 50 46.2025 49.455 47.27C48.9747 48.2109 48.209 48.9758 47.2675 49.455C46.2 50 44.8025 50 42.0075 50H17.9925C15.1975 50 13.7975 50 12.73 49.455C11.7892 48.9756 11.0244 48.2108 10.545 47.27C10 46.2 10 44.8 10 42Z" stroke="#4ECB71" stroke-width="5" stroke-linecap="round" stroke-linejoin="round"/>
</svg>
