<svg width="47" height="40" viewBox="0 0 47 40" fill="none" xmlns="http://www.w3.org/2000/svg">
<path d="M46.081 19.4188C46.0806 19.2862 46.0801 19.1354 46.0744 18.9606C46.0676 18.4723 46.0555 17.9237 46.0433 17.3389C45.9966 15.657 45.9192 13.9811 45.8009 12.4019C45.6396 10.2259 45.4077 8.41191 45.095 7.05034C44.7651 5.62944 44.1234 4.33463 43.234 3.29533C42.3446 2.25603 41.2387 1.50864 40.0268 1.12787C38.5719 0.674297 35.7257 0.399996 31.7192 0.237912C29.8136 0.159574 27.7745 0.111806 25.7355 0.0881546C25.0216 0.0783701 24.359 0.0744513 23.7632 0.0703196L22.2533 0.075128C21.6576 0.0830543 20.9951 0.0911927 20.2813 0.105524C18.2425 0.142162 16.2037 0.202916 14.2986 0.29339C10.2933 0.487017 7.44392 0.779456 5.99714 1.23624C4.7874 1.62378 3.68605 2.37788 2.80345 3.42297C1.92086 4.46806 1.28803 5.76743 0.96837 7.19087C0.659609 8.55442 0.444792 10.3698 0.297941 12.5468C0.190195 14.1267 0.123856 15.803 0.0883514 17.4853C0.0748846 18.0701 0.0715693 18.6188 0.068054 19.1071C0.0686342 19.282 0.0639987 19.4327 0.0644388 19.5654L0.0655591 19.903C0.0659992 20.0356 0.0664993 20.1863 0.0722153 20.3612C0.0789715 20.8495 0.0910636 21.3981 0.103276 21.9829C0.149944 23.6648 0.227406 25.3407 0.345635 26.9199C0.50693 29.0959 0.738926 30.9099 1.05159 32.2714C1.71856 35.1572 3.65717 37.43 6.11977 38.1939C7.56958 38.6475 10.4209 38.9218 14.4274 39.0839C16.333 39.1622 18.3721 39.21 20.4111 39.2336C21.125 39.2434 21.7876 39.2473 22.3833 39.2515L23.8932 39.2467C24.489 39.2387 25.1515 39.2306 25.8653 39.2163C27.9041 39.1796 29.9428 39.1189 31.8479 39.0284C35.8532 38.8348 38.7027 38.5423 40.1494 38.0855C42.6069 37.306 44.5304 35.0269 45.1782 32.1309C45.487 30.7674 45.7018 28.9519 45.8486 26.775C45.9564 25.195 46.0227 23.5187 46.0582 21.8365C46.0717 21.2517 46.075 20.703 46.0785 20.2146C46.0779 20.0398 46.0826 19.8891 46.0821 19.7564L46.081 19.4188ZM42.3843 19.7441C42.3847 19.8707 42.3852 20.0094 42.3806 20.1722C42.377 20.6424 42.3685 21.161 42.36 21.7217C42.3294 23.3255 42.2628 24.9295 42.1599 26.419C42.0277 28.3607 41.8378 29.953 41.6 31.0209C41.2862 32.4146 40.3551 33.5209 39.1751 33.8924C38.0977 34.2335 35.3818 34.5134 31.6897 34.688C29.8206 34.7783 27.8075 34.839 25.7995 34.8756C25.096 34.8899 24.4438 34.898 23.8583 34.8998L22.3894 34.9045L20.4481 34.8926C18.4399 34.8688 16.4316 34.821 14.5568 34.7425C10.8636 34.5855 8.14074 34.3289 7.06624 33.9947C5.88377 33.6246 4.94542 32.5303 4.62238 31.1387C4.37745 30.0723 4.17701 28.4813 4.0319 26.5404C3.91911 25.0516 3.84702 23.4481 3.80062 21.8445C3.78335 21.2838 3.77647 20.7593 3.7698 20.2951C3.76926 20.1323 3.76364 19.9877 3.76324 19.8671L3.76228 19.5777C3.76186 19.4511 3.7614 19.3124 3.766 19.1496C3.76957 18.6793 3.77812 18.1608 3.78653 17.6001C3.81716 15.9963 3.88374 14.3923 3.98665 12.9028C4.11888 10.961 4.30875 9.36877 4.54659 8.30088C4.86039 6.90717 5.79144 5.80089 6.97145 5.42936C8.04884 5.0883 10.7648 4.80834 14.4569 4.6338C16.326 4.54344 18.339 4.48277 20.347 4.44623C21.0506 4.43193 21.7028 4.42382 22.2883 4.42196L23.7571 4.41728L25.6985 4.42919C27.7067 4.45294 29.715 4.5008 31.5898 4.57924C35.283 4.73629 38.0058 4.9929 39.0803 5.3271C40.2628 5.69714 41.2012 6.79143 41.5242 8.18312C41.7691 9.24948 41.9696 10.8405 42.1147 12.7814C42.2275 14.2702 42.2996 15.8737 42.346 17.4773C42.3632 18.0379 42.3701 18.5624 42.3768 19.0267C42.3773 19.1894 42.3829 19.3341 42.3833 19.4547L42.3843 19.7441ZM18.5293 27.7543L30.4173 19.5772L18.4756 11.5966L18.5293 27.7543Z" fill="white"/>
</svg>
