<svg width="48" height="41" viewBox="0 0 48 41" fill="none" xmlns="http://www.w3.org/2000/svg">
<path d="M47.9344 20.2669C47.934 20.1343 47.9335 19.9835 47.9276 19.8087C47.9206 19.3204 47.9081 18.7718 47.8955 18.187C47.8472 16.5051 47.7668 14.8292 47.644 13.25C47.4765 11.0741 47.2354 9.26009 46.9103 7.89856C46.5673 6.4777 45.9 5.18298 44.9749 4.14379C44.0498 3.1046 42.8995 2.35736 41.6388 1.97674C40.1253 1.52335 37.1646 1.24942 32.9967 1.08785C31.0143 1.00975 28.8931 0.962248 26.772 0.938858C26.0294 0.929165 25.3401 0.925331 24.7204 0.921275L23.1496 0.926278C22.5299 0.93428 21.8407 0.942504 21.0981 0.956927C18.9772 0.993826 16.8564 1.05484 14.8745 1.14556C10.7079 1.3397 7.74366 1.63251 6.23853 2.08948C4.98002 2.47717 3.83421 3.23141 2.91593 4.27661C1.99765 5.32182 1.33915 6.62127 1.00643 8.04475C0.685052 9.40834 0.461341 11.2238 0.308284 13.4008C0.195987 14.9807 0.126752 16.657 0.0895925 18.3393C0.0755052 18.9241 0.071983 19.4728 0.0682609 19.9611C0.0688411 20.136 0.0639986 20.2867 0.0644388 20.4194L0.0655591 20.757C0.0659992 20.8896 0.0664993 21.0403 0.0724221 21.2152C0.0793852 21.7035 0.091891 22.2521 0.104517 22.8369C0.15284 24.5188 0.233198 26.1946 0.355978 27.7739C0.523479 29.9498 0.764576 31.7638 1.08966 33.1253C1.7831 36.011 3.79949 38.2836 6.36117 39.0471C7.86931 39.5006 10.8354 39.7745 15.0032 39.936C16.9856 40.0141 19.1069 40.0616 21.228 40.085C21.9706 40.0947 22.6599 40.0986 23.2796 40.1026L24.8504 40.0976C25.4701 40.0896 26.1593 40.0814 26.9019 40.067C29.0228 40.0301 31.1436 39.969 33.1255 39.8783C37.2921 39.6842 40.2563 39.3914 41.7615 38.9344C44.318 38.1545 46.3193 35.8752 46.9936 32.9791C47.3149 31.6155 47.5387 29.8001 47.6917 27.6231C47.804 26.0431 47.8732 24.3669 47.9104 22.6846C47.9245 22.0998 47.928 21.5511 47.9317 21.0628C47.9312 20.8879 47.936 20.7372 47.9356 20.6045L47.9344 20.2669ZM44.0888 20.5927C44.0892 20.7193 44.0897 20.8579 44.0849 21.0207C44.0811 21.491 44.0721 22.0095 44.0633 22.5703C44.0312 24.1741 43.9617 25.778 43.8545 27.2676C43.7167 29.2094 43.5189 30.8017 43.2714 31.8696C42.9447 33.2633 41.9761 34.3697 40.7485 34.7414C39.6276 35.0826 36.8023 35.3629 32.9615 35.5379C31.017 35.6285 28.9229 35.6895 26.834 35.7263C26.1021 35.7407 25.4236 35.7488 24.8146 35.7508L23.2866 35.7556L21.267 35.744C19.1779 35.7205 17.0888 35.6729 15.1384 35.5947C11.2965 35.4381 8.46405 35.1819 7.34632 34.8478C6.11627 34.4779 5.14027 33.3837 4.80441 31.9921C4.54976 30.9258 4.34146 29.3348 4.19077 27.3939C4.07363 25.9051 3.99886 24.3016 3.95079 22.698C3.9329 22.1374 3.92582 21.6129 3.91894 21.1487C3.9184 20.9859 3.91258 20.8412 3.91218 20.7206L3.91122 20.4312C3.9108 20.3046 3.91034 20.1659 3.91514 20.0031C3.91892 19.5329 3.92788 19.0143 3.93671 18.4536C3.96879 16.8498 4.03826 15.2458 4.14552 13.7563C4.28332 11.8145 4.48106 10.2222 4.72863 9.1543C5.05525 7.76055 6.02395 6.65415 7.25153 6.28247C8.37236 5.94127 11.1977 5.66097 15.0385 5.48595C16.983 5.39535 19.0771 5.33442 21.166 5.29762C21.8979 5.28323 22.5764 5.27505 23.1854 5.27311L24.7134 5.26824L26.733 5.2799C28.8221 5.30339 30.9112 5.351 32.8616 5.42919C36.7035 5.58577 39.5359 5.84203 40.6537 6.1761C41.8837 6.54598 42.8597 7.64016 43.1956 9.0318C43.4502 10.0981 43.6585 11.6891 43.8092 13.63C43.9264 15.1188 44.0011 16.7223 44.0492 18.3259C44.0671 18.8865 44.0742 19.411 44.0811 19.8752C44.0816 20.038 44.0874 20.1827 44.0878 20.3033L44.0888 20.5927ZM19.2719 28.6059L31.6398 20.4273L19.2182 12.4482L19.2719 28.6059Z" fill="white"/>
</svg>
