<svg width="47" height="40" viewBox="0 0 47 40" fill="none" xmlns="http://www.w3.org/2000/svg">
<path d="M46.081 19.4191C46.0806 19.2864 46.0801 19.1357 46.0744 18.9609C46.0676 18.4725 46.0555 17.9239 46.0433 17.3392C45.9966 15.6572 45.9192 13.9814 45.8009 12.4021C45.6396 10.2262 45.4077 8.41215 45.095 7.05059C44.7651 5.62968 44.1234 4.33487 43.234 3.29557C42.3446 2.25627 41.2387 1.50889 40.0268 1.12811C38.5719 0.674541 35.7257 0.40024 31.7192 0.238156C29.8136 0.159819 27.7745 0.112051 25.7355 0.0883988C25.0216 0.0786142 24.359 0.0746954 23.7632 0.0705637L22.2533 0.0753722C21.6576 0.0832984 20.9951 0.0914369 20.2813 0.105768C18.2425 0.142406 16.2037 0.20316 14.2986 0.293634C10.2933 0.487261 7.44392 0.7797 5.99714 1.23649C4.7874 1.62402 3.68605 2.37812 2.80345 3.42321C1.92086 4.4683 1.28803 5.76767 0.96837 7.19111C0.659609 8.55466 0.444792 10.3701 0.297941 12.547C0.190195 14.127 0.123856 15.8033 0.0883514 17.4855C0.0748846 18.0704 0.0715693 18.619 0.068054 19.1074C0.0686342 19.2822 0.0639987 19.433 0.0644388 19.5656L0.0655591 19.9032C0.0659992 20.0359 0.0664993 20.1866 0.0722153 20.3614C0.0789715 20.8497 0.0910636 21.3983 0.103276 21.9831C0.149944 23.6651 0.227406 25.3409 0.345635 26.9201C0.50693 29.0961 0.738926 30.9101 1.05159 32.2717C1.71856 35.1575 3.65717 37.4303 6.11977 38.1942C7.56958 38.6477 10.4209 38.922 14.4274 39.0841C16.333 39.1624 18.3721 39.2102 20.4111 39.2339C21.125 39.2437 21.7876 39.2476 22.3833 39.2517L23.8932 39.2469C24.489 39.239 25.1515 39.2308 25.8653 39.2165C27.9041 39.1799 29.9428 39.1191 31.8479 39.0286C35.8532 38.835 38.7027 38.5426 40.1494 38.0858C42.6069 37.3062 44.5304 35.0272 45.1782 32.1312C45.487 30.7676 45.7018 28.9522 45.8486 26.7752C45.9564 25.1953 46.0227 23.519 46.0582 21.8368C46.0717 21.2519 46.075 20.7033 46.0785 20.2149C46.0779 20.0401 46.0826 19.8893 46.0821 19.7567L46.081 19.4191ZM42.3843 19.7443C42.3847 19.8709 42.3852 20.0096 42.3806 20.1724C42.377 20.6427 42.3685 21.1612 42.36 21.7219C42.3294 23.3258 42.2628 24.9297 42.1599 26.4192C42.0277 28.361 41.8378 29.9533 41.6 31.0212C41.2862 32.4149 40.3551 33.5211 39.1751 33.8927C38.0977 34.2337 35.3818 34.5137 31.6897 34.6882C29.8206 34.7786 27.8075 34.8393 25.7995 34.8758C25.096 34.8901 24.4438 34.8982 23.8583 34.9001L22.3894 34.9047L20.4481 34.8928C18.4399 34.8691 16.4316 34.8212 14.5568 34.7428C10.8636 34.5857 8.14074 34.3291 7.06624 33.9949C5.88377 33.6249 4.94542 32.5306 4.62238 31.1389C4.37745 30.0725 4.17701 28.4815 4.0319 26.5406C3.91911 25.0518 3.84702 23.4483 3.80062 21.8447C3.78335 21.2841 3.77647 20.7596 3.7698 20.2954C3.76926 20.1326 3.76364 19.9879 3.76324 19.8673L3.76228 19.5779C3.76186 19.4513 3.7614 19.3127 3.766 19.1499C3.76957 18.6796 3.77812 18.1611 3.78653 17.6003C3.81716 15.9965 3.88374 14.3926 3.98665 12.9031C4.11888 10.9613 4.30875 9.36902 4.54659 8.30112C4.86039 6.90741 5.79144 5.80113 6.97145 5.4296C8.04884 5.08854 10.7648 4.80859 14.4569 4.63404C16.326 4.54368 18.339 4.48301 20.347 4.44647C21.0506 4.43217 21.7028 4.42407 22.2883 4.4222L23.7571 4.41753L25.6985 4.42943C27.7067 4.45318 29.715 4.50104 31.5898 4.57948C35.283 4.73653 38.0058 4.99314 39.0803 5.32735C40.2628 5.69738 41.2012 6.79168 41.5242 8.18336C41.7691 9.24972 41.9696 10.8408 42.1147 12.7816C42.2275 14.2705 42.2996 15.874 42.346 17.4775C42.3632 18.0382 42.3701 18.5627 42.3768 19.0269C42.3773 19.1897 42.3829 19.3344 42.3833 19.4549L42.3843 19.7443ZM18.5293 27.7545L30.4173 19.5775L18.4756 11.5969L18.5293 27.7545Z" fill="white"/>
</svg>
