<svg width="32" height="24" viewBox="0 0 32 24" fill="none" xmlns="http://www.w3.org/2000/svg">
<path d="M30.8571 0.481934H1.14286C0.510714 0.481934 0 0.948272 0 1.52549V22.3966C0 22.9738 0.510714 23.4401 1.14286 23.4401H30.8571C31.4893 23.4401 32 22.9738 32 22.3966V1.52549C32 0.948272 31.4893 0.481934 30.8571 0.481934ZM29.4286 4.09524V21.0921H2.57143V4.09524L1.58571 3.3941L2.98929 1.74724L4.51786 2.83319H27.4857L29.0143 1.74724L30.4179 3.3941L29.4286 4.09524ZM27.4857 2.82993L16 10.9827L4.51429 2.82993L2.98571 1.74398L1.58214 3.39084L2.56786 4.09198L14.7679 12.7535C15.1187 13.0024 15.5504 13.1375 15.9946 13.1375C16.4389 13.1375 16.8706 13.0024 17.2214 12.7535L29.4286 4.09524L30.4143 3.3941L29.0107 1.74724L27.4857 2.82993Z" fill="black"/>
</svg>
