<svg width="48" height="40" viewBox="0 0 48 40" fill="none" xmlns="http://www.w3.org/2000/svg">
<path d="M47.9344 19.4194C47.934 19.2867 47.9335 19.136 47.9276 18.9612C47.9206 18.4729 47.9081 17.9243 47.8955 17.3395C47.8472 15.6575 47.7668 13.9817 47.644 12.4025C47.4765 10.2265 47.2354 8.41256 46.9103 7.05103C46.5673 5.63017 45.9 4.33544 44.9749 3.29625C44.0498 2.25707 42.8995 1.50982 41.6388 1.12921C40.1253 0.675819 37.1646 0.401883 32.9967 0.240314C31.0143 0.16222 28.8931 0.114714 26.772 0.0913234C26.0294 0.0816304 25.3401 0.0777966 24.7204 0.0737412L23.1496 0.0787434C22.5299 0.086746 21.8407 0.0949695 21.0981 0.109392C18.9772 0.146292 16.8564 0.207308 14.8745 0.298026C10.7079 0.492166 7.74366 0.784971 6.23853 1.24194C4.98002 1.62964 3.83421 2.38388 2.91593 3.42908C1.99765 4.47428 1.33915 5.77374 1.00643 7.19722C0.685052 8.5608 0.461341 10.3763 0.308284 12.5532C0.195987 14.1332 0.126752 15.8095 0.0895925 17.4917C0.0755052 18.0766 0.071983 18.6252 0.0682609 19.1136C0.0688411 19.2884 0.0639986 19.4392 0.0644388 19.5718L0.0655591 19.9094C0.0659992 20.0421 0.0664993 20.1928 0.0724221 20.3676C0.0793852 20.856 0.091891 21.4046 0.104517 21.9893C0.15284 23.6713 0.233198 25.3471 0.355978 26.9263C0.523479 29.1023 0.764576 30.9163 1.08966 32.2778C1.7831 35.1635 3.79949 37.4361 6.36117 38.1996C7.86931 38.653 10.8354 38.9269 15.0032 39.0885C16.9856 39.1666 19.1069 39.2141 21.228 39.2375C21.9706 39.2472 22.6599 39.251 23.2796 39.2551L24.8504 39.2501C25.4701 39.2421 26.1593 39.2338 26.9019 39.2194C29.0228 39.1825 31.1436 39.1215 33.1255 39.0308C37.2921 38.8366 40.2563 38.5438 41.7615 38.0869C44.318 37.307 46.3193 35.0277 46.9936 32.1316C47.3149 30.768 47.5387 28.9526 47.6917 26.7756C47.804 25.1956 47.8732 23.5193 47.9104 21.8371C47.9245 21.2522 47.928 20.7036 47.9317 20.2152C47.9312 20.0404 47.936 19.8896 47.9356 19.757L47.9344 19.4194ZM44.0888 19.7451C44.0892 19.8717 44.0897 20.0104 44.0849 20.1732C44.0811 20.6435 44.0721 21.162 44.0633 21.7227C44.0312 23.3266 43.9617 24.9305 43.8545 26.42C43.7167 28.3618 43.5189 29.9541 43.2714 31.0221C42.9447 32.4158 41.9761 33.5222 40.7485 33.8939C39.6276 34.2351 36.8023 34.5154 32.9615 34.6904C31.017 34.781 28.9229 34.8419 26.834 34.8787C26.1021 34.8931 25.4236 34.9013 24.8146 34.9032L23.2866 34.9081L21.267 34.8965C19.1779 34.873 17.0888 34.8254 15.1384 34.7472C11.2965 34.5906 8.46405 34.3343 7.34632 34.0003C6.11627 33.6304 5.14027 32.5362 4.80441 31.1446C4.54976 30.0782 4.34146 28.4872 4.19077 26.5463C4.07363 25.0575 3.99886 23.4541 3.95079 21.8505C3.9329 21.2898 3.92582 20.7653 3.91894 20.3011C3.9184 20.1383 3.91258 19.9937 3.91218 19.8731L3.91122 19.5837C3.9108 19.4571 3.91034 19.3184 3.91514 19.1556C3.91892 18.6853 3.92788 18.1668 3.93671 17.6061C3.96879 16.0022 4.03826 14.3983 4.14552 12.9088C4.28332 10.967 4.48106 9.37469 4.72863 8.30677C5.05525 6.91302 6.02395 5.80662 7.25153 5.43493C8.37236 5.09374 11.1977 4.81343 15.0385 4.63842C16.983 4.54782 19.0771 4.48689 21.166 4.45009C21.8979 4.4357 22.5764 4.42751 23.1854 4.42557L24.7134 4.42071L26.733 4.43236C28.8221 4.45585 30.9112 4.50346 32.8616 4.58166C36.7035 4.73823 39.5359 4.99449 40.6537 5.32856C41.8837 5.69844 42.8597 6.79262 43.1956 8.18426C43.4502 9.25059 43.6585 10.8416 43.8092 12.7825C43.9264 14.2713 44.0011 15.8748 44.0492 17.4783C44.0671 18.039 44.0742 18.5635 44.0811 19.0277C44.0816 19.1905 44.0874 19.3352 44.0878 19.4557L44.0888 19.7451ZM19.2719 27.7584L31.6398 19.5798L19.2182 11.6007L19.2719 27.7584Z" fill="white"/>
</svg>
